<svg width="119" height="119" viewBox="0 0 119 119" fill="none" xmlns="http://www.w3.org/2000/svg">
<path d="M0 64.8891L16.0573 71.488L20.4566 82.0462L13.8577 98.1035L19.1368 100.303L21.3364 105.582L36.9538 98.9834L47.9519 103.383L54.5508 119L59.8299 116.8L65.1091 119L71.488 103.383L82.4861 98.7634L98.1035 105.142L100.303 99.8632L105.582 97.6636L98.9834 82.0462L103.383 71.0481L119 64.4492L116.8 59.1701L119 53.8909L102.943 47.292L98.5434 36.7338L105.142 20.6765L99.8632 18.4769L97.6636 13.1978L81.3863 20.2366L71.268 16.0573L64.2292 0L58.9501 2.19963L53.671 0L47.0721 16.2773L37.1738 20.4566L20.8965 13.8577L18.6969 19.1368L13.4177 21.3364L20.2366 37.3937L16.0573 47.512L0 54.5508L2.19963 59.8299L0 64.8891ZM35.854 44.2126L36.9538 50.3715L31.8946 53.8909L25.5157 49.4917L28.1553 42.8928L35.854 44.2126ZM42.4529 28.5952L49.0518 25.7357L53.451 31.8946L49.9316 36.9538L43.9926 36.0739L42.4529 28.5952ZM56.0906 19.3567L59.1701 11.878L62.2495 19.3567L59.1701 23.756L56.0906 19.3567ZM74.5675 35.854L68.4085 36.9538L64.8891 31.8946L69.2884 25.5157L75.8872 28.1553L74.5675 35.854ZM54.3309 47.292L59.39 40.0333L64.4492 47.292L73.0277 45.7523L71.488 54.3309L78.7468 59.39L71.488 64.4492L73.0277 73.0277L64.4492 71.488L59.39 78.7468L54.3309 71.488L45.7523 73.0277L47.292 64.4492L40.0333 59.39L47.292 54.3309L45.7523 45.7523L54.3309 47.292ZM90.6248 42.4529L93.2643 49.0518L86.8854 53.671L81.8262 50.1516L82.9261 43.9926L90.6248 42.4529ZM82.9261 74.5675L81.8262 68.4085L86.8854 64.8891L93.4843 69.5083L90.8447 75.8872L82.9261 74.5675ZM95.024 59.1701L99.4233 56.0906L106.902 59.1701L99.4233 62.2495L95.024 59.1701ZM76.3272 90.8447L69.9482 93.4843L65.329 86.8854L68.8484 81.8262L75.0074 82.9261L76.3272 90.8447ZM62.6895 99.4233L59.61 106.902L56.5305 99.4233L59.61 95.024L62.6895 99.4233ZM44.2126 82.9261L50.3715 81.8262L53.8909 86.8854L49.2717 93.4843L42.8928 90.8447L44.2126 82.9261ZM28.1553 76.3272L25.5157 69.7283L31.8946 65.1091L36.9538 68.6285L36.0739 74.7874L28.1553 76.3272ZM23.756 59.61L19.3567 62.6895L11.878 59.61L19.3567 56.5305L23.756 59.61ZM25.9556 93.0444L29.0351 85.5656L34.3142 84.6858L33.4344 89.9649L25.9556 93.0444ZM84.6858 84.4658L89.9649 85.3456L93.0444 92.8244L85.7856 89.7449L84.6858 84.4658ZM92.8244 25.7357L89.7449 32.9945L84.4658 33.8743L85.3456 28.5952L92.8244 25.7357ZM34.0943 34.3142L28.8152 33.4344L25.7357 25.9556L33.2144 29.0351L34.0943 34.3142Z" fill="white"/>
</svg>
